<svg width="107" height="106" viewBox="0 0 107 106" fill="none" xmlns="http://www.w3.org/2000/svg">
<rect width="100" height="100" rx="15" fill="#352B70"/>
<rect x="9" y="8" width="96" height="96" rx="13" fill="#3A2C84" stroke="#342972" stroke-width="4"/>
<path d="M37.3756 70V40.8H46.9356C48.829 40.8 50.469 41.16 51.8556 41.88C53.269 42.6 54.349 43.6267 55.0956 44.96C55.869 46.2667 56.2556 47.8133 56.2556 49.6C56.2556 51.36 55.869 52.9067 55.0956 54.24C54.3223 55.5733 53.2423 56.6 51.8556 57.32C50.469 58.04 48.829 58.4 46.9356 58.4H41.6956V70H37.3756ZM41.6956 54.52H46.9356C48.429 54.52 49.6156 54.08 50.4956 53.2C51.4023 52.2933 51.8556 51.0933 51.8556 49.6C51.8556 48.08 51.4023 46.88 50.4956 46C49.6156 45.12 48.429 44.68 46.9356 44.68H41.6956V54.52ZM73.16 70C71.8 70 70.6133 69.7333 69.6 69.2C68.5867 68.64 67.7867 67.8533 67.2 66.84C66.64 65.8267 66.36 64.6533 66.36 63.32V44.72H59.16V40.8H70.68V63.32C70.68 64.1733 70.92 64.8533 71.4 65.36C71.88 65.84 72.5333 66.08 73.36 66.08H80.16V70H73.16Z" fill="#F6F4FF"/>
</svg>
